<?xml version="1.0" standalone="no"?>
<!DOCTYPE svg PUBLIC "-//W3C//DTD SVG 20010904//EN"
 "http://www.w3.org/TR/2001/REC-SVG-20010904/DTD/svg10.dtd">
<svg version="1.0" xmlns="http://www.w3.org/2000/svg"
 width="700.000000pt" height="700.000000pt" viewBox="0 0 700.000000 700.000000"
 preserveAspectRatio="xMidYMid meet">
<metadata>
Created by potrace 1.11, written by Peter Selinger 2001-2013
</metadata>
<g transform="translate(0.000000,700.000000) scale(0.100000,-0.100000)"
fill="#000000" stroke="none">
<path d="M3880 4175 c-541 -520 -987 -945 -992 -945 -4 0 -151 128 -327 285
-176 157 -325 285 -330 285 -5 0 -64 -61 -131 -136 -99 -112 -119 -139 -108
-149 7 -7 198 -175 423 -375 226 -200 426 -378 446 -397 l36 -34 1114 1067
c613 587 1115 1068 1116 1068 1 1 -57 63 -130 139 l-132 137 -985 -945z"/>
<path d="M4340 3749 c-531 -512 -1074 -1037 -1207 -1166 l-242 -234 -548 510
-548 510 -40 -44 c-22 -24 -80 -86 -128 -138 l-88 -95 58 -55 c32 -30 337
-314 678 -630 l619 -575 71 66 c179 168 2595 2505 2595 2511 0 3 -57 66 -128
139 l-127 133 -965 -932z"/>
</g>
</svg>
